<svg width="207" height="193" viewBox="0 0 207 193" fill="none" xmlns="http://www.w3.org/2000/svg">
<g clip-path="url(#clip0_343_1602)">
<path d="M206.338 16.9914C206.338 15.8636 206.269 14.7066 206.025 13.6081C204.434 6.42628 198.829 1.11929 191.925 0.181902C184.451 -0.833603 177.767 2.4375 174.159 9.12616C166.215 23.8656 158.345 39.9624 150.47 54.7409C148.371 58.676 146.32 62.6355 144.245 66.5803C147.282 52.4853 144.88 39.4839 137.044 27.5517C122.573 5.51819 97.9227 -3.49442 72.7011 1.21694C53.4944 4.80538 38.3253 15.2485 26.3247 30.1784C5.21882 56.435 -1.66025 87.032 0.326821 120.031C1.05427 132.129 3.29522 144.032 6.02439 155.833C8.69986 167.399 12.0442 178.779 15.5057 190.125C15.9549 191.6 16.3699 192.42 18.9233 192.43C28.7121 192.474 38.6817 192.474 48.3827 192.474C51.4145 192.474 52.142 192.264 51.5366 190.413C50.7017 187.865 49.9206 185.302 49.1101 182.743C46.3858 174.102 43.7836 165.421 41.655 156.594C41.9821 157.185 42.3433 157.693 42.646 158.244C54.1242 178.75 75.6695 190.448 98.9138 186.708C112.062 184.594 122.178 177.534 130.531 167.589C138.465 158.147 143.786 147.176 148.713 135.986C155.885 119.689 163.828 103.768 172.367 87.9352V90.3178C172.367 119.284 172.352 176.123 172.352 189.627C172.352 191.248 173.666 192.557 175.282 192.557H203.408C205.029 192.557 206.338 191.248 206.338 189.627C206.338 170.699 206.347 63.6363 206.338 16.9963V16.9914ZM37.1389 137.011C35.85 131.109 35.2055 125.631 34.6538 120.153C33.3747 107.435 34.1705 94.8338 37.5295 82.4671C41.279 68.665 47.4209 56.1519 58.0104 46.2116C64.2939 40.3139 71.4366 35.8564 80.1465 34.6651C90.8191 33.2054 100.227 35.6221 107.116 44.5468C113.141 52.3486 112.364 59.9258 105.036 66.5657C99.402 71.6627 92.5962 74.802 85.8734 78.0731C76.8803 82.4525 67.8286 86.7 59.7436 92.7052C45.0676 103.597 37.2219 117.976 37.1389 137.011ZM119.893 116.477C116.382 124.244 113.106 132.134 108.615 139.423C106.003 143.661 103.205 147.787 98.8894 150.496C90.8191 155.559 80.5517 153.308 74.7321 145.302C69.264 137.778 70.6798 128.057 78.1741 121.803C84.2915 116.696 91.4635 113.391 98.5721 109.983C108.991 104.989 119.341 99.8967 127.997 92.0119C130.463 89.7661 132.64 87.2664 134.915 84.7911C129.833 95.3318 124.702 105.834 119.888 116.487V116.477H119.893Z" fill="#012727"/>
</g>
<defs>
<clipPath id="clip0_343_1602">
<rect width="207" height="193" fill="white"/>
</clipPath>
</defs>
</svg>
